<svg width="68" height="36" viewBox="0 0 68 36" fill="none" xmlns="http://www.w3.org/2000/svg">
<path d="M0 36H68V0H0V36ZM51.4288 11.8359C53.0743 11.8359 54.5564 12.3633 55.4783 13.3477V11.9531H59.6561V27.9375H55.4783V26.5078C54.5564 27.4805 53.0393 28.0195 51.4522 28.0195C47.006 28.0195 43.6568 24.6445 43.6568 19.9688C43.6684 15.3516 47.041 11.8359 51.4288 11.8359ZM35.2428 11.9531H43.1199V15.9844H39.409V27.9375H35.2312V11.9531H35.2428ZM26.0353 11.8359C30.7149 11.8359 33.574 15.2813 33.574 19.6992C33.574 20.3672 33.5157 21.1055 33.3523 21.7266H22.7561C23.2346 23.2734 24.7283 24.1172 26.4321 24.1172C28.0192 24.1172 28.9878 23.5664 29.7697 22.7812L32.4654 25.5938C31.0184 27.0469 28.9061 28.0195 26.3971 28.0195C21.8109 28.0195 18.415 24.8086 18.415 19.8633C18.415 15.6328 21.5075 11.8359 26.0353 11.8359ZM7.5737 7.91016H19.9437V11.9414H15.9293V27.9258H11.7515V11.9531H7.5737V7.91016ZM48.0446 19.9102C48.0446 17.6133 49.655 15.9141 51.7673 15.9141C53.9145 15.9141 55.6066 17.6133 55.6066 19.9102C55.6066 22.2305 53.9145 23.9297 51.7673 23.9297C49.6667 23.9297 48.0446 22.2305 48.0446 19.9102ZM29.3846 18.1523H22.7911C23.1296 16.9102 24.3549 15.6328 26.1287 15.6328C27.9842 15.6445 29.0695 16.9102 29.3846 18.1523Z" fill="white"/>
</svg>